<?xml version="1.0" encoding="UTF-8"?>
<svg version="1.1" xmlns="http://www.w3.org/2000/svg" width="119" height="164">
<path d="M0 0 C39.27 0 78.54 0 119 0 C119 54.12 119 108.24 119 164 C79.73 164 40.46 164 0 164 C0 109.88 0 55.76 0 0 Z " fill="#FDFCFC" transform="translate(0,0)"/>
<path d="M0 0 C15.53613582 0.44159559 26.99843866 5.98351753 40.0859375 13.9609375 C40.6739917 14.30390869 41.2620459 14.64687988 41.86791992 15.00024414 C46.43191919 17.88674478 47.68148251 20.54550782 49.3984375 25.4609375 C49.8934375 26.4509375 49.8934375 26.4509375 50.3984375 27.4609375 C51.2440625 26.8421875 52.0896875 26.2234375 52.9609375 25.5859375 C56.41551218 23.05819993 58.79067167 22.77744202 63.3984375 21.4609375 C63.3984375 36.3109375 63.3984375 51.1609375 63.3984375 66.4609375 C24.1284375 66.4609375 -15.1415625 66.4609375 -55.6015625 66.4609375 C-55.6015625 49.9609375 -55.6015625 33.4609375 -55.6015625 16.4609375 C-54.2815625 16.4609375 -52.9615625 16.4609375 -51.6015625 16.4609375 C-49.82746442 14.54071047 -49.82746442 14.54071047 -48.6015625 12.4609375 C-45.63981127 13.07371362 -44.22097467 13.71466272 -41.6015625 15.4609375 C-33.03103838 18.24893932 -25.665078 18.71835208 -17.4140625 14.8984375 C-11.46103277 11.69470776 -7.72832743 8.03747913 -4.30078125 2.2734375 C-2.6015625 0.4609375 -2.6015625 0.4609375 0 0 Z " fill="#FEFEFD" transform="translate(55.6015625,97.5390625)"/>
<path d="M0 0 C4.2664884 0.43388018 5.84921968 1.1926857 8.6875 4.375 C9.25 6.875 9.25 6.875 8.6875 9.375 C6.875 11.6875 6.875 11.6875 4.6875 13.375 C3.6975 13.375 2.7075 13.375 1.6875 13.375 C1.6875 15.025 1.6875 16.675 1.6875 18.375 C2.450625 18.643125 3.21375 18.91125 4 19.1875 C6.61063504 20.34103641 7.76135089 21.36129865 9.6875 23.375 C14.99354399 25.14368133 19.82907481 25.2327347 24.9375 22.875 C29.63838089 18.60147192 32.62459536 13.37617713 34.6875 7.375 C35.0175 7.375 35.3475 7.375 35.6875 7.375 C35.15711446 15.72857222 33.70923775 23.01466568 27.25 28.8125 C20.54686281 34.27143539 14.00123847 33.54295431 5.6875 33.375 C6.1825 40.8 6.1825 40.8 6.6875 48.375 C8.729375 49.138125 10.77125 49.90125 12.875 50.6875 C21.17643889 54.05895061 27.15984476 59.37306196 33.6875 65.375 C35.16385183 66.62832331 36.64257651 67.87886412 38.125 69.125 C41.69631195 72.25653256 44.68583027 75.69795458 47.6875 79.375 C51.1525 78.385 51.1525 78.385 54.6875 77.375 C55.3475 78.695 56.0075 80.015 56.6875 81.375 C55.63995905 82.24744765 54.57363078 83.09736674 53.5 83.9375 C52.90832031 84.41316406 52.31664063 84.88882813 51.70703125 85.37890625 C48.92944278 86.74889669 47.59550153 86.33986687 44.6875 85.375 C42.46875 84.02734375 42.46875 84.02734375 40.1875 82.3125 C26.43458394 72.39002574 12.06440697 63.68039362 -5.38671875 63.765625 C-9.00922339 64.52011195 -9.87260555 65.53061572 -12 68.5 C-12.52722656 69.31855469 -13.05445313 70.13710937 -13.59765625 70.98046875 C-17.32825515 76.18971049 -23.34553472 79.31095541 -29.3125 81.375 C-36.1308369 82.36558857 -42.92937181 80.75366999 -49.3125 78.375 C-49.9725 77.715 -50.6325 77.055 -51.3125 76.375 C-53.3605428 76.4700739 -53.3605428 76.4700739 -55.3125 77.375 C-55.9725 78.365 -56.6325 79.355 -57.3125 80.375 C-58.6325 80.045 -59.9525 79.715 -61.3125 79.375 C-60.90637864 75.85528158 -59.240637 73.26310238 -56.9597168 70.59570312 C-54.25887921 68.59419313 -51.93351337 69.0730936 -48.71875 69.50976562 C-47.9246875 69.65091797 -47.130625 69.79207031 -46.3125 69.9375 C-45.5184375 70.05158203 -44.724375 70.16566406 -43.90625 70.28320312 C-40.01769668 70.85676474 -36.1581609 71.5608984 -32.3125 72.375 C-32.395 71.281875 -32.4775 70.18875 -32.5625 69.0625 C-32.52110889 61.23957939 -29.45447032 54.6232201 -24.6875 48.5625 C-19.41183132 41.51321251 -19.16793037 32.93673492 -19.3125 24.375 C-28.05518742 23.69901901 -33.84594433 24.77176568 -41.3125 29.375 C-46.27801724 32.375 -46.27801724 32.375 -48.3125 32.375 C-45.9952616 25.23437951 -40.1933786 20.94856323 -34.09765625 16.90625 C-25.16948844 12.5127755 -11.850917 12.99523268 -2.3125 15.375 C-2.3125 14.055 -2.3125 12.735 -2.3125 11.375 C-3.6325 10.715 -4.9525 10.055 -6.3125 9.375 C-5.33797771 0.60429936 -5.33797771 0.60429936 0 0 Z " fill="#BB2122" transform="translate(61.3125,34.625)"/>
<path d="M0 0 C1.60031344 3.20062687 0.03173691 5.72271806 -1 9 C-0.34 9 0.32 9 1 9 C0.67 10.65 0.34 12.3 0 14 C-2.475 13.01 -2.475 13.01 -5 12 C-5.02708567 13.60407328 -5.04643483 15.2082785 -5.0625 16.8125 C-5.07410156 17.70582031 -5.08570312 18.59914063 -5.09765625 19.51953125 C-5.11009967 22.13413791 -5.11009967 22.13413791 -4 25 C-4.56589844 25.33773437 -5.13179687 25.67546875 -5.71484375 26.0234375 C-6.44832031 26.46945313 -7.18179687 26.91546875 -7.9375 27.375 C-9.03384766 28.03628906 -9.03384766 28.03628906 -10.15234375 28.7109375 C-12.13772272 29.8773984 -12.13772272 29.8773984 -13 32 C-11.08075213 31.77065591 -9.1645594 31.51565657 -7.25 31.25 C-6.18265625 31.11078125 -5.1153125 30.9715625 -4.015625 30.828125 C-0.54625136 29.87539545 0.66174517 28.66357724 3 26 C6 24 6 24 8.1875 24.375 C8.785625 24.58125 9.38375 24.7875 10 25 C3.33309627 30.35083962 -2.659401 34.60187088 -11.51953125 34.296875 C-16.83175728 33.66108102 -23.12752624 32.87247376 -27 29 C-29.0480428 29.0950739 -29.0480428 29.0950739 -31 30 C-31.66 30.99 -32.32 31.98 -33 33 C-34.32 32.67 -35.64 32.34 -37 32 C-36.59387864 28.48028158 -34.928137 25.88810238 -32.6472168 23.22070312 C-29.94637921 21.21919313 -27.62101337 21.6980936 -24.40625 22.13476562 C-23.21515625 22.34649414 -23.21515625 22.34649414 -22 22.5625 C-21.2059375 22.67658203 -20.411875 22.79066406 -19.59375 22.90820312 C-15.70519668 23.48176474 -11.8456609 24.1858984 -8 25 C-8.0825 23.906875 -8.165 22.81375 -8.25 21.6875 C-8.25 13.7305457 -4.73002796 6.25039409 0 0 Z " fill="#B03436" transform="translate(37,82)"/>
<path d="M0 0 C4.2664884 0.43388018 5.84921968 1.1926857 8.6875 4.375 C9.25 6.875 9.25 6.875 8.6875 9.375 C6.875 11.6875 6.875 11.6875 4.6875 13.375 C3.6975 13.375 2.7075 13.375 1.6875 13.375 C1.6875 15.025 1.6875 16.675 1.6875 18.375 C2.450625 18.643125 3.21375 18.91125 4 19.1875 C6.6875 20.375 6.6875 20.375 8 21.875 C10.32295806 23.9398516 12.33059991 24.09688587 15.375 24.5625 C16.36886719 24.72105469 17.36273438 24.87960938 18.38671875 25.04296875 C19.52560547 25.20732422 19.52560547 25.20732422 20.6875 25.375 C20.6875 25.705 20.6875 26.035 20.6875 26.375 C8.89980336 26.94131283 8.89980336 26.94131283 3.6875 23.375 C3.1925 22.385 3.1925 22.385 2.6875 21.375 C1.6975 21.87 1.6975 21.87 0.6875 22.375 C0.1925 19.405 0.1925 19.405 -0.3125 16.375 C-0.9725 16.705 -1.6325 17.035 -2.3125 17.375 C-4.56370742 17.46073394 -6.81749303 17.48212188 -9.0703125 17.47265625 C-10.06488968 17.47053383 -10.06488968 17.47053383 -11.07955933 17.46836853 C-13.19891863 17.46276754 -15.31817259 17.450215 -17.4375 17.4375 C-18.87369639 17.43248512 -20.30989444 17.42792219 -21.74609375 17.42382812 C-25.26826345 17.41279782 -28.79037145 17.39553259 -32.3125 17.375 C-29.22663284 14.28913284 -26.17101291 14.24860642 -21.94140625 14.2421875 C-21.11962891 14.24089844 -20.29785156 14.23960938 -19.45117188 14.23828125 C-18.60103516 14.24214844 -17.75089844 14.24601562 -16.875 14.25 C-16.02873047 14.24613281 -15.18246094 14.24226563 -14.31054688 14.23828125 C-10.18304048 14.24474563 -6.33709894 14.333728 -2.3125 15.375 C-2.3125 14.055 -2.3125 12.735 -2.3125 11.375 C-3.6325 10.715 -4.9525 10.055 -6.3125 9.375 C-5.33797771 0.60429936 -5.33797771 0.60429936 0 0 Z " fill="#B13F45" transform="translate(61.3125,34.625)"/>
<path d="M0 0 C8.57463916 6.1681328 16.32638946 12.78632549 23 21 C25.31 20.34 27.62 19.68 30 19 C30.66 20.32 31.32 21.64 32 23 C30.95245905 23.87244765 29.88613078 24.72236674 28.8125 25.5625 C28.22082031 26.03816406 27.62914063 26.51382813 27.01953125 27.00390625 C24.24194278 28.37389669 22.90800153 27.96486687 20 27 C17.78125 25.65234375 17.78125 25.65234375 15.5 23.9375 C9.53863813 19.59705224 3.31038077 15.80798839 -3 12 C-2.34 11.67 -1.68 11.34 -1 11 C1.39255767 11.92772644 3.67646409 12.92090467 6 14 C7.64497536 14.73110016 9.29081548 15.46025762 10.9375 16.1875 C12.29187368 16.79120246 13.64611467 17.39520315 15 18 C15 16.68 15 15.36 15 14 C13.35 14 11.7 14 10 14 C9.67 12.68 9.34 11.36 9 10 C7.68 9.67 6.36 9.34 5 9 C5 7.68 5 6.36 5 5 C4.01 5 3.02 5 2 5 C1.34 3.35 0.68 1.7 0 0 Z " fill="#AE3436" transform="translate(86,93)"/>
<path d="M0 0 C0.33 0.99 0.66 1.98 1 3 C0.67 3.33 0.34 3.66 0 4 C0.72445313 3.97679687 1.44890625 3.95359375 2.1953125 3.9296875 C7.54578244 3.82981206 11.99446082 3.83544252 17 6 C17 7.32 17 8.64 17 10 C16.34 10 15.68 10 15 10 C14.95101562 10.98742188 14.90203125 11.97484375 14.8515625 12.9921875 C14.77679688 14.27351563 14.70203125 15.55484375 14.625 16.875 C14.55539063 18.15117188 14.48578125 19.42734375 14.4140625 20.7421875 C14 24 14 24 12 26 C11.87931529 19.60371021 12.34513908 13.36150605 13 7 C4.25731258 6.32401901 -1.53344433 7.39676568 -9 12 C-13.96551724 15 -13.96551724 15 -16 15 C-14.60502076 10.52972561 -12.51254724 8.29284615 -9 5.25 C-8.113125 4.47140625 -7.22625 3.6928125 -6.3125 2.890625 C-2.7768595 0 -2.7768595 0 0 0 Z " fill="#B33E42" transform="translate(29,52)"/>
<path d="M0 0 C0.33 0 0.66 0 1 0 C0.46961446 8.35357222 -0.97826225 15.63966568 -7.4375 21.4375 C-12.11511295 25.24687853 -16.32668174 26.25655645 -22.3125 26.125 C-23.38113281 26.10695313 -24.44976562 26.08890625 -25.55078125 26.0703125 C-26.35902344 26.04710938 -27.16726562 26.02390625 -28 26 C-28 25.67 -28 25.34 -28 25 C-22.39 24.01 -16.78 23.02 -11 22 C-11 21.34 -11 20.68 -11 20 C-10.34 19.67 -9.68 19.34 -9 19 C-10.32 18.34 -11.64 17.68 -13 17 C-12.113125 16.505 -11.22625 16.01 -10.3125 15.5 C-4.9660182 11.94831823 -2.04413985 5.94658867 0 0 Z " fill="#A83738" transform="translate(96,42)"/>
<path d="M0 0 C2.01822917 0.06510417 4.03645833 0.13020833 6.0546875 0.1953125 C6.3846875 2.8353125 6.7146875 5.4753125 7.0546875 8.1953125 C5.40894184 8.22219401 3.76307337 8.24165373 2.1171875 8.2578125 C1.20066406 8.26941406 0.28414062 8.28101563 -0.66015625 8.29296875 C-2.9453125 8.1953125 -2.9453125 8.1953125 -3.9453125 7.1953125 C-4.1328125 4.7578125 -4.1328125 4.7578125 -3.9453125 2.1953125 C-1.9453125 0.1953125 -1.9453125 0.1953125 0 0 Z " fill="#B62325" transform="translate(60.9453125,35.8046875)"/>
<path d="M0 0 C4.33530653 1.32226849 7.33080416 2.82352074 10.21875 6.46484375 C9.55488281 6.25988281 8.89101562 6.05492188 8.20703125 5.84375 C7.32402344 5.57433594 6.44101563 5.30492188 5.53125 5.02734375 C4.66113281 4.76050781 3.79101562 4.49367188 2.89453125 4.21875 C-1.72303359 2.91774268 -6.04094532 2.26770821 -10.84375 2.15234375 C-11.86597656 2.11496094 -12.88820313 2.07757813 -13.94140625 2.0390625 C-17.44724661 2.56469744 -18.56950606 3.775745 -20.78125 6.46484375 C-20.46875 4.08984375 -20.46875 4.08984375 -19.78125 1.46484375 C-14.23441065 -2.23304915 -6.38898035 -1.22934032 0 0 Z " fill="#AF383A" transform="translate(69.78125,96.53515625)"/>
<path d="M0 0 C1.60031344 3.20062687 0.03173691 5.72271806 -1 9 C-0.34 9 0.32 9 1 9 C0.67 10.65 0.34 12.3 0 14 C-2.475 13.01 -2.475 13.01 -5 12 C-5.144375 12.886875 -5.28875 13.77375 -5.4375 14.6875 C-5.91019978 17.47117646 -6.43070185 20.23483757 -7 23 C-7.33 23 -7.66 23 -8 23 C-7.44531682 14.40241069 -5.46627042 6.82502907 0 0 Z " fill="#AE3839" transform="translate(37,82)"/>
<path d="M0 0 C0.82177734 -0.00128906 1.64355469 -0.00257812 2.49023438 -0.00390625 C3.34037109 -0.00003906 4.19050781 0.00382812 5.06640625 0.0078125 C5.91267578 0.00394531 6.75894531 0.00007813 7.63085938 -0.00390625 C11.75836577 0.00255813 15.60430731 0.0915405 19.62890625 1.1328125 C19.62890625 1.7928125 19.62890625 2.4528125 19.62890625 3.1328125 C9.72890625 3.1328125 -0.17109375 3.1328125 -10.37109375 3.1328125 C-7.28522659 0.04694534 -4.22960666 0.00641892 0 0 Z " fill="#B64D50" transform="translate(39.37109375,48.8671875)"/>
<path d="M0 0 C0.66 0 1.32 0 2 0 C2 1.98 2 3.96 2 6 C-0.33214148 7.20628008 -2.49642139 8.1654738 -5 9 C-5.66 9.66 -6.32 10.32 -7 11 C-8.64991582 11.70710678 -10.31562256 12.37943989 -12 13 C-12.99 10.03 -13.98 7.06 -15 4 C-14.278125 4.515625 -13.55625 5.03125 -12.8125 5.5625 C-10.15429355 7.21615507 -10.15429355 7.21615507 -7.5 6.875 C-4.67212834 5.88524492 -2.40858343 4.7892334 0 3 C0 2.01 0 1.02 0 0 Z " fill="#FAE4E0" transform="translate(117,113)"/>
<path d="M0 0 C0.66 0 1.32 0 2 0 C2.33 4.95 2.66 9.9 3 15 C7.95 16.98 7.95 16.98 13 19 C8.92353502 20.01911625 6.97219866 20.18320811 3 19 C-0.21743175 14.96317558 -0.32932481 11.74591815 -0.1875 6.6875 C-0.14689453 4.80611328 -0.14689453 4.80611328 -0.10546875 2.88671875 C-0.07066406 1.93410156 -0.03585938 0.98148437 0 0 Z " fill="#A82B2F" transform="translate(65,68)"/>
<path d="M0 0 C0.66 0.33 1.32 0.66 2 1 C2.625 3.0625 2.625 3.0625 3 5 C-0.5087188 8.09592835 -3.49197399 9.74194623 -8 11 C-6.52670958 5.99081256 -3.72484762 3.48192278 0 0 Z " fill="#A83C3D" transform="translate(21,56)"/>
<path d="M0 0 C2.97 0 5.94 0 9 0 C9 0.33 9 0.66 9 1 C6.36 1 3.72 1 1 1 C1.11184083 8.933889 1.11184083 8.933889 4.65625 15.4609375 C6.78171394 16.31895983 6.78171394 16.31895983 10 17 C10.33 17.66 10.66 18.32 11 19 C9.35303396 18.5247412 7.70745272 18.04468109 6.0625 17.5625 C5.14597656 17.29566406 4.22945313 17.02882813 3.28515625 16.75390625 C1 16 1 16 0 15 C-0.07313567 12.46950598 -0.09247527 9.96695163 -0.0625 7.4375 C-0.05798828 6.72658203 -0.05347656 6.01566406 -0.04882812 5.28320312 C-0.03700864 3.52209987 -0.01907263 1.76103964 0 0 Z " fill="#ECB4B3" transform="translate(67,68)"/>
<path d="M0 0 C2.475 0.495 2.475 0.495 5 1 C5 1.66 5 2.32 5 3 C5.84304687 3.06058594 6.68609375 3.12117188 7.5546875 3.18359375 C9.19824219 3.30927734 9.19824219 3.30927734 10.875 3.4375 C12.51082031 3.55931641 12.51082031 3.55931641 14.1796875 3.68359375 C17 4 17 4 19 5 C19 4.34 19 3.68 19 3 C19.99 3.33 20.98 3.66 22 4 C19.39043324 6.72302618 17.26997872 7.26435984 13.625 7.375 C9.47464756 7.25151844 6.56967398 6.19672245 3 4 C3 3.34 3 2.68 3 2 C2.01 1.67 1.02 1.34 0 1 C0 0.67 0 0.34 0 0 Z " fill="#F7D2D1" transform="translate(65,53)"/>
<path d="M0 0 C1.32 0.33 2.64 0.66 4 1 C3.01 1 2.02 1 1 1 C0.67 2.32 0.34 3.64 0 5 C1.32 5.33 2.64 5.66 4 6 C3.38125 6.268125 2.7625 6.53625 2.125 6.8125 C-0.2995233 7.95556848 -0.2995233 7.95556848 -2 11 C-3.32 10.67 -4.64 10.34 -6 10 C-5.49477778 5.62140745 -2.82172778 3.18348776 0 0 Z " fill="#AC444A" transform="translate(6,104)"/>
<path d="M0 0 C3.66464055 0.4952217 5.70832354 1.0208206 8 4 C8.33 4.99 8.66 5.98 9 7 C9.66 7.33 10.32 7.66 11 8 C11 8.66 11 9.32 11 10 C11.99 10 12.98 10 14 10 C14 9.34 14 8.68 14 8 C15.65 8 17.3 8 19 8 C18.67 8.66 18.34 9.32 18 10 C15.6859378 10.73075648 13.35171131 11.40138258 11 12 C10.45730469 11.38511719 9.91460937 10.77023438 9.35546875 10.13671875 C8.64003906 9.32847656 7.92460938 8.52023438 7.1875 7.6875 C6.47980469 6.88699219 5.77210937 6.08648437 5.04296875 5.26171875 C3.40662878 3.45016838 1.74727832 1.70318297 0 0 Z " fill="#F9DDDA" transform="translate(98,103)"/>
<path d="M0 0 C5.09885387 3.64943348 9.77383466 7.35121812 14 12 C14 12.66 14 13.32 14 14 C12.68 14 11.36 14 10 14 C9.67 12.68 9.34 11.36 9 10 C7.68 9.67 6.36 9.34 5 9 C5 7.68 5 6.36 5 5 C4.01 5 3.02 5 2 5 C1.34 3.35 0.68 1.7 0 0 Z " fill="#A93033" transform="translate(86,93)"/>
<path d="M0 0 C1.65322266 0.01740234 1.65322266 0.01740234 3.33984375 0.03515625 C4.99693359 0.04869141 4.99693359 0.04869141 6.6875 0.0625 C7.54214844 0.07410156 8.39679688 0.08570312 9.27734375 0.09765625 C9.27734375 0.42765625 9.27734375 0.75765625 9.27734375 1.09765625 C5.97734375 1.75765625 2.67734375 2.41765625 -0.72265625 3.09765625 C-1.05265625 4.41765625 -1.38265625 5.73765625 -1.72265625 7.09765625 C-3.70265625 7.42765625 -5.68265625 7.75765625 -7.72265625 8.09765625 C-3.22369459 0.1156275 -3.22369459 0.1156275 0 0 Z " fill="#F4CBC9" transform="translate(55.72265625,97.90234375)"/>
<path d="M0 0 C-0.4921875 1.921875 -0.4921875 1.921875 -2 4 C-4.80388496 4.62835477 -7.28828843 5.0148322 -10.125 5.25 C-10.87910156 5.32734375 -11.63320312 5.4046875 -12.41015625 5.484375 C-14.27182671 5.67289859 -16.13577938 5.83863238 -18 6 C-18 7.65 -18 9.3 -18 11 C-18.33 11 -18.66 11 -19 11 C-19 8.69 -19 6.38 -19 4 C-17.78763672 3.81824219 -17.78763672 3.81824219 -16.55078125 3.6328125 C-15.48214844 3.46523437 -14.41351563 3.29765625 -13.3125 3.125 C-12.25675781 2.96257812 -11.20101562 2.80015625 -10.11328125 2.6328125 C-6.67283709 1.93350014 -3.47239101 0 0 0 Z " fill="#FEE8E8" transform="translate(87,65)"/>
<path d="M0 0 C0.99 0 1.98 0 3 0 C2 3 2 3 -0.8125 4.6875 C-5.99580323 6.76949627 -11.51659261 6.24310673 -17 6 C-17 5.67 -17 5.34 -17 5 C-11.39 4.01 -5.78 3.02 0 2 C0 1.34 0 0.68 0 0 Z " fill="#A9383B" transform="translate(85,62)"/>
<path d="M0 0 C1.32 0.66 2.64 1.32 4 2 C4 3.32 4 4.64 4 6 C-2.93 5.67 -9.86 5.34 -17 5 C-17 4.67 -17 4.34 -17 4 C-8.585 3.505 -8.585 3.505 0 3 C0 2.01 0 1.02 0 0 Z " fill="#F8CFC9" transform="translate(55,44)"/>
<path d="M0 0 C0.88429688 -0.01417969 1.76859375 -0.02835938 2.6796875 -0.04296875 C5.125 0.1875 5.125 0.1875 8.125 2.1875 C7.795 3.5075 7.465 4.8275 7.125 6.1875 C6.609375 5.6925 6.09375 5.1975 5.5625 4.6875 C2.23703064 2.64105731 -0.03806413 2.76892518 -3.875 3.1875 C-5.81869738 4.54179841 -5.81869738 4.54179841 -6.875 6.1875 C-5.88307755 0.66107495 -5.65882459 0.04100598 0 0 Z " fill="#F9DCDC" transform="translate(61.875,32.8125)"/>
<path d="M0 0 C0.66 0 1.32 0 2 0 C2 1.65 2 3.3 2 5 C-0.22942748 4.85820962 -2.45853628 4.71140302 -4.6875 4.5625 C-5.92886719 4.48128906 -7.17023437 4.40007812 -8.44921875 4.31640625 C-11.38180337 4.05508683 -14.13441617 3.65201621 -17 3 C-17 2.67 -17 2.34 -17 2 C-11.72 2 -6.44 2 -1 2 C-0.67 1.34 -0.34 0.68 0 0 Z " fill="#F5CFCE" transform="translate(27,102)"/>
<path d="M0 0 C0.66 0.33 1.32 0.66 2 1 C-1.52109142 4.33623412 -4.25045176 4.37790691 -9 4.3125 C-10.216875 4.30863281 -11.43375 4.30476563 -12.6875 4.30078125 C-15.73361428 4.02418833 -17.44645769 3.6023478 -20 2 C-17.45276657 0.72638328 -16.69245814 1.2816854 -14 2 C-8.82636413 2.39797199 -4.77579717 2.17081689 0 0 Z " fill="#F3C5C2" transform="translate(37,113)"/>
<path d="M0 0 C4.19360449 0.67097672 7.40334352 2.8558394 11 5 C9.3125 6.125 9.3125 6.125 7 7 C4.375 6.4375 4.375 6.4375 2 5 C0.6875 2.375 0.6875 2.375 0 0 Z " fill="#FBE7E3" transform="translate(80,104)"/>
<path d="M0 0 C1.3903211 3.86200305 1.07030055 7.07556464 0 11 C-2.9375 13 -2.9375 13 -6 14 C-6.66 13.67 -7.32 13.34 -8 13 C-7.59007813 12.56429687 -7.18015625 12.12859375 -6.7578125 11.6796875 C-3.38909998 7.95637366 -1.21759521 4.99214035 0 0 Z " fill="#F5D3D1" transform="translate(95,51)"/>
<path d="M0 0 C0.33 0 0.66 0 1 0 C0.65225015 8.13734658 0.65225015 8.13734658 -1.9375 11.5625 C-4 13 -4 13 -6 13 C-5.71382813 12.43796875 -5.42765625 11.8759375 -5.1328125 11.296875 C-3.98584069 8.97129077 -2.92160206 6.62229799 -1.875 4.25 C-1.52179688 3.45078125 -1.16859375 2.6515625 -0.8046875 1.828125 C-0.53914063 1.22484375 -0.27359375 0.6215625 0 0 Z " fill="#A55F61" transform="translate(96,42)"/>
<path d="M0 0 C1.98 0.99 1.98 0.99 4 2 C4 2.66 4 3.32 4 4 C2.68 4 1.36 4 0 4 C0 2.68 0 1.36 0 0 Z M-5 3 C-3.02 3.66 -1.04 4.32 1 5 C1 5.66 1 6.32 1 7 C1.99 7.33 2.98 7.66 4 8 C-0.31392226 7.5206753 -2.16569547 6.2542015 -5 3 Z " fill="#B24C4C" transform="translate(107,113)"/>
<path d="M0 0 C4.10899581 1.12795963 8.07561214 2.33510818 12 4 C12 4.33 12 4.66 12 5 C7.28596212 4.52060632 3.33420699 4.03165952 -1 2 C-0.67 1.34 -0.34 0.68 0 0 Z " fill="#F8D6D5" transform="translate(68,99)"/>
<path d="M0 0 C5.61589298 -0.29047722 9.09825932 -0.10842092 14 3 C14.33 3.66 14.66 4.32 15 5 C14.33613281 4.79503906 13.67226562 4.59007813 12.98828125 4.37890625 C12.10527344 4.10949219 11.22226563 3.84007813 10.3125 3.5625 C9.44238281 3.29566406 8.57226562 3.02882813 7.67578125 2.75390625 C5.12974079 2.03655471 2.5996577 1.482459 0 1 C0 0.67 0 0.34 0 0 Z " fill="#B34749" transform="translate(65,98)"/>
<path d="M0 0 C5.94 2.475 5.94 2.475 12 5 C7.94799882 6.0130003 5.94577422 6.2008878 2 5 C1.34 3.35 0.68 1.7 0 0 Z " fill="#AE393C" transform="translate(66,82)"/>
<path d="M0 0 C1.32 0.33 2.64 0.66 4 1 C3.38125 1.0825 2.7625 1.165 2.125 1.25 C1.42375 1.4975 0.7225 1.745 0 2 C-0.309375 2.66 -0.61875 3.32 -0.9375 4 C-1.288125 4.66 -1.63875 5.32 -2 6 C-4.625 6.75 -4.625 6.75 -7 7 C-7 6.01 -7 5.02 -7 4 C-5.68 4 -4.36 4 -3 4 C-1.22590192 2.07977297 -1.22590192 2.07977297 0 0 Z " fill="#F7D7D4" transform="translate(7,110)"/>
<path d="M0 0 C1.98 0.99 1.98 0.99 4 2 C4 2.99 4 3.98 4 5 C4.66 5 5.32 5 6 5 C5.34 6.32 4.68 7.64 4 9 C3.34 8.67 2.68 8.34 2 8 C1.60828247 6.34608154 1.27942455 4.67654729 1 3 C0.67 2.01 0.34 1.02 0 0 Z " fill="#FAF2EF" transform="translate(102,117)"/>
<path d="M0 0 C1.65 0.33 3.3 0.66 5 1 C5 1.66 5 2.32 5 3 C2.69 3.33 0.38 3.66 -2 4 C-1.34 2.68 -0.68 1.36 0 0 Z " fill="#BA2122" transform="translate(15,108)"/>
<path d="M0 0 C1.32 0 2.64 0 4 0 C4 0.66 4 1.32 4 2 C4.66 2 5.32 2 6 2 C6 2.66 6 3.32 6 4 C3.69 4 1.38 4 -1 4 C-0.67 2.68 -0.34 1.36 0 0 Z " fill="#B72324" transform="translate(7,105)"/>
<path d="M0 0 C1.32 0.33 2.64 0.66 4 1 C3.01 1.33 2.02 1.66 1 2 C-0.39341966 3.40331374 -0.39341966 3.40331374 -1.625 5.0625 C-2.40875 6.031875 -3.1925 7.00125 -4 8 C-4.33 8 -4.66 8 -5 8 C-5 6.35 -5 4.7 -5 3 C-3.68 3 -2.36 3 -1 3 C-0.67 2.01 -0.34 1.02 0 0 Z " fill="#FCE1DD" transform="translate(5,103)"/>
<path d="M0 0 C-0.99 0.66 -1.98 1.32 -3 2 C-3.33 2.99 -3.66 3.98 -4 5 C-4.99 5 -5.98 5 -7 5 C-7 3.35 -7 1.7 -7 0 C-3.86650268 -1.04449911 -3.01031744 -0.93423645 0 0 Z " fill="#AB282E" transform="translate(66,46)"/>
<path d="M0 0 C2.64752004 2.57784846 4.94432065 4.91648098 7 8 C4 8 4 8 1 6 C0.3125 2.875 0.3125 2.875 0 0 Z " fill="#B34347" transform="translate(100,105)"/>
<path d="M0 0 C3.79303725 1.00193437 6.71536341 1.81024227 10 4 C10 4.66 10 5.32 10 6 C6.40992874 4.66654496 3.20429093 3.1056769 0 1 C0 0.67 0 0.34 0 0 Z " fill="#A94245" transform="translate(83,104)"/>
<path d="M0 0 C0.33 0 0.66 0 1 0 C1 1.65 1 3.3 1 5 C3.475 5.99 3.475 5.99 6 7 C5.67 7.66 5.34 8.32 5 9 C3.68 9 2.36 9 1 9 C-0.61949011 6.42786866 -1.04408751 5.32330841 -0.625 2.25 C-0.41875 1.5075 -0.2125 0.765 0 0 Z " fill="#B04243" transform="translate(62,48)"/>
<path d="M0 0 C1.32 0.66 2.64 1.32 4 2 C3.67 2.99 3.34 3.98 3 5 C1.02 4.34 -0.96 3.68 -3 3 C-2.01 2.01 -1.02 1.02 0 0 Z " fill="#A84A53" transform="translate(114,112)"/>
<path d="M0 0 C0.66 0.33 1.32 0.66 2 1 C1.67 2.32 1.34 3.64 1 5 C-0.98 5.33 -2.96 5.66 -5 6 C-3.63016497 2.83884224 -3.0109362 2.0072908 0 0 Z " fill="#F9E5E1" transform="translate(53,100)"/>
<path d="M0 0 C0.66 0.33 1.32 0.66 2 1 C0.68 4.63 -0.64 8.26 -2 12 C-3.00000429 7.99998285 -2.80688405 5.94476647 -2 2 C-1.34 2 -0.68 2 0 2 C0 1.34 0 0.68 0 0 Z " fill="#FADDDA" transform="translate(32,87)"/>
<path d="M0 0 C0.66 0.33 1.32 0.66 2 1 C1.38245741 2.31602523 0.75571258 3.62773556 0.125 4.9375 C-0.22304687 5.66839844 -0.57109375 6.39929687 -0.9296875 7.15234375 C-2 9 -2 9 -4 10 C-3.67 8.02 -3.34 6.04 -3 4 C-2.01 3.67 -1.02 3.34 0 3 C0 2.01 0 1.02 0 0 Z " fill="#FBE1E0" transform="translate(94,43)"/>
<path d="M0 0 C2.475 0.99 2.475 0.99 5 2 C5 3.32 5 4.64 5 6 C3.35 5.67 1.7 5.34 0 5 C0 3.35 0 1.7 0 0 Z " fill="#B22228" transform="translate(102,111)"/>
<path d="M0 0 C0.99 0 1.98 0 3 0 C3.33 1.65 3.66 3.3 4 5 C1.69 4.67 -0.62 4.34 -3 4 C-3 3.34 -3 2.68 -3 2 C-2.01 2 -1.02 2 0 2 C0 1.34 0 0.68 0 0 Z " fill="#B02B2D" transform="translate(83,100)"/>
<path d="M0 0 C3.37503669 1.1858237 5.64722731 2.27573689 8 5 C6.35 5.33 4.7 5.66 3 6 C3 4.68 3 3.36 3 2 C2.01 2 1.02 2 0 2 C0 1.34 0 0.68 0 0 Z " fill="#B24948" transform="translate(78,88)"/>
<path d="M0 0 C1.32 0.99 2.64 1.98 4 3 C-0.75 6 -0.75 6 -3 6 C-1.125 1.125 -1.125 1.125 0 0 Z " fill="#B47A7E" transform="translate(16,61)"/>
</svg>
