<?xml version="1.0" encoding="UTF-8" standalone="no"?>
<!-- Created with Inkscape (http://www.inkscape.org/) -->

<svg
   width="29.096973mm"
   height="27.981821mm"
   viewBox="0 0 29.096974 27.981821"
   version="1.1"
   id="svg1"
   xmlns:xlink="http://www.w3.org/1999/xlink"
   xmlns="http://www.w3.org/2000/svg"
   xmlns:svg="http://www.w3.org/2000/svg">
  <defs
     id="defs1">
    <linearGradient
       xlink:href="#swatch3"
       id="linearGradient15"
       x1="111.57248"
       y1="31.382374"
       x2="111.57248"
       y2="38.946278"
       gradientUnits="userSpaceOnUse"
       gradientTransform="matrix(1.1001726,0,0,1.1018911,-23.753637,49.32786)" />
    <linearGradient
       id="swatch3">
      <stop
         style="stop-color:#002c59;stop-opacity:1;"
         offset="0"
         id="stop3" />
    </linearGradient>
    <linearGradient
       xlink:href="#swatch3"
       id="linearGradient3"
       gradientUnits="userSpaceOnUse"
       gradientTransform="matrix(0.86278919,0,0,0.86278918,50.901957,60.680002)"
       x1="101.86526"
       y1="40.507076"
       x2="101.86526"
       y2="53.031418" />
  </defs>
  <g
     id="layer1"
     transform="translate(-83.90914,-80.340419)">
    <g
       id="g24">
      <ellipse
         style="fill:#faf8f8;fill-opacity:1;stroke:none;stroke-width:0.199547;stroke-linejoin:round;stroke-opacity:1"
         id="path16"
         cx="98.457626"
         cy="94.331329"
         rx="14.548487"
         ry="13.990911" />
      <text
         xml:space="preserve"
         style="font-style:normal;font-variant:normal;font-weight:normal;font-stretch:normal;font-size:14.4754px;font-family:'Franklin Gothic Medium';-inkscape-font-specification:'Franklin Gothic Medium, Normal';font-variant-ligatures:normal;font-variant-caps:normal;font-variant-numeric:normal;font-variant-east-asian:normal;fill:#ff6700;fill-opacity:1;stroke:url(#linearGradient3);stroke-width:0.861064;stroke-linejoin:round;stroke-dasharray:none;stroke-opacity:1;paint-order:markers stroke fill"
         x="88.859116"
         y="105.85597"
         id="text3"
         transform="scale(1.0169533,0.98332933)"><tspan
           id="tspan3"
           style="font-style:normal;font-variant:normal;font-weight:normal;font-stretch:normal;font-size:14.4754px;font-family:'Franklin Gothic Medium';-inkscape-font-specification:'Franklin Gothic Medium, Normal';font-variant-ligatures:normal;font-variant-caps:normal;font-variant-numeric:normal;font-variant-east-asian:normal;fill:#ff6700;fill-opacity:1;stroke:url(#linearGradient3);stroke-width:0.861064;stroke-linejoin:round;stroke-dasharray:none;stroke-opacity:1;paint-order:markers stroke fill"
           x="88.859116"
           y="105.85597">HT</tspan></text>
      <path
         style="fill:#ff6700;fill-opacity:1;stroke:url(#linearGradient15);stroke-width:0.252136;stroke-linejoin:round;stroke-dasharray:none;stroke-opacity:0.933333"
         d="m 102.829,91.453739 c -1.18279,-0.782437 -2.32799,-1.301484 -3.239658,-1.46833 -0.859399,-0.157283 -1.210949,-0.06112 -1.55066,0.424173 -0.156741,0.223925 -0.542484,0.582717 -0.85721,0.797315 -0.483064,0.32935 -0.676838,0.396774 -1.243074,0.432468 -0.580649,0.03659 -0.762651,-2.61e-4 -1.354104,-0.27427 l -0.683306,-0.316557 -0.21504,0.270639 c -0.164101,0.206557 -0.244018,0.241907 -0.337577,0.149294 -0.09351,-0.09261 -0.04269,-0.202872 0.214523,-0.465668 l 0.337093,-0.344322 0.94639,0.145814 c 1.073098,0.165344 1.250952,0.133818 1.250952,-0.221651 0,-0.482111 0.419187,-1.573682 0.771881,-2.010093 0.288322,-0.356718 0.377282,-0.586879 0.472909,-1.223521 0.154343,-1.027268 0.149304,-1.156584 -0.04786,-1.231533 -0.353595,-0.134329 -1.066771,-0.0467 -1.668477,0.205039 -0.345906,0.144706 -0.699644,0.288404 -0.786129,0.31933 -0.08647,0.03093 0.05622,-0.151385 0.317356,-0.405131 0.699622,-0.680145 1.475739,-0.941635 2.617498,-0.881904 0.490028,0.02563 0.958877,0.06513 1.041918,0.08779 0.242027,0.06599 0.250509,-0.297579 0.01419,-0.595358 -0.119588,-0.150422 -0.217295,-0.313893 -0.217295,-0.36327 0,-0.197518 0.436769,-0.50485 0.717467,-0.50485 0.632203,0 0.862813,0.752346 0.310667,1.013499 -0.241917,0.114429 -0.492053,0.498692 -0.382596,0.587805 0.01969,0.016 0.288685,0.199286 0.597811,0.407255 0.931841,0.626908 1.821541,0.469558 2.422361,-0.428408 0.3525,-0.526899 0.41581,-0.403949 0.12189,0.236694 -0.37201,0.810709 -1.18605,1.294326 -2.18079,1.295642 l -0.437205,5.66e-4 -0.03466,0.763416 -0.03454,0.763416 0.476595,0.167292 c 0.81158,0.284863 1.78772,0.984465 2.81223,2.015502 l 0.98286,0.989137 0.29391,-0.171884 c 0.20048,-0.11725 0.3162,-0.136184 0.36404,-0.05956 0.0385,0.06177 0.0537,0.124331 0.0333,0.13902 -0.26671,0.194053 -0.7061,0.477145 -0.73417,0.473041 -0.0198,-0.0029 -0.52094,-0.32594 -1.11337,-0.717838 z"
         id="path40" />
    </g>
  </g>
</svg>
