<?xml version="1.0" encoding="UTF-8" standalone="no"?>
<!-- Created with Inkscape (http://www.inkscape.org/) -->

<svg
   width="100.80645mm"
   height="101.16129mm"
   viewBox="0 0 100.80645 101.16129"
   version="1.1"
   id="svg1"
   xmlns:xlink="http://www.w3.org/1999/xlink"
   xmlns="http://www.w3.org/2000/svg"
   xmlns:svg="http://www.w3.org/2000/svg">
  <defs
     id="defs1">
    <linearGradient
       id="linearGradient12">
      <stop
         style="stop-color:#fcff0b;stop-opacity:1;"
         offset="0"
         id="stop12" />
      <stop
         style="stop-color:#ff6700;stop-opacity:1;"
         offset="0.87150836"
         id="stop13" />
    </linearGradient>
    <linearGradient
       xlink:href="#swatch3"
       id="linearGradient15"
       x1="111.57248"
       y1="31.382374"
       x2="111.57248"
       y2="38.946278"
       gradientUnits="userSpaceOnUse"
       gradientTransform="matrix(5.6696921,0,0,7.2946148,-531.91873,-150.08881)" />
    <linearGradient
       id="swatch3">
      <stop
         style="stop-color:#002c59;stop-opacity:1;"
         offset="0"
         id="stop3" />
    </linearGradient>
    <linearGradient
       xlink:href="#linearGradient12"
       id="linearGradient13"
       x1="26.363974"
       y1="98.069405"
       x2="26.363974"
       y2="107.05021"
       gradientUnits="userSpaceOnUse" />
    <linearGradient
       xlink:href="#linearGradient12"
       id="linearGradient46"
       gradientUnits="userSpaceOnUse"
       x1="26.363974"
       y1="98.069405"
       x2="26.363974"
       y2="107.05021" />
    <linearGradient
       xlink:href="#linearGradient12"
       id="linearGradient47"
       gradientUnits="userSpaceOnUse"
       x1="26.363974"
       y1="98.069405"
       x2="26.363974"
       y2="107.05021" />
  </defs>
  <g
     id="layer1"
     transform="translate(-50.370969,-55.693549)">
    <ellipse
       style="fill:none;stroke:#002c59;stroke-width:5;stroke-linejoin:round;stroke-dasharray:none;stroke-opacity:1;paint-order:markers stroke fill"
       id="path1"
       cx="100.77419"
       cy="106.27419"
       rx="47.903225"
       ry="48.080643" />
    <ellipse
       style="fill:none;stroke:#002c59;stroke-width:3.01489;stroke-linejoin:round;stroke-dasharray:none;stroke-opacity:1;paint-order:markers stroke fill"
       id="path1-2"
       cx="100.77"
       cy="106.1525"
       rx="42.895554"
       ry="43.073055" />
  </g>
  <g
     id="layer2"
     transform="translate(-50.370969,-55.693549)">
    <path
       style="fill:#ff6700;fill-opacity:1;stroke:url(#linearGradient15);stroke-width:1.4727;stroke-linejoin:round;stroke-dasharray:none;stroke-opacity:0.933333"
       d="m 120.4194,128.78817 c -6.09546,-5.17981 -11.99716,-8.61593 -16.69541,-9.72047 -4.428881,-1.04121 -6.240565,-0.40464 -7.991264,2.80805 -0.807741,1.48242 -2.795655,3.85764 -4.417586,5.2783 -2.489455,2.18032 -3.488038,2.62668 -6.406126,2.86299 -2.992351,0.24225 -3.930292,-0.001 -6.978316,-1.81571 l -3.52138,-2.09563 -1.108208,1.79165 c -0.845683,1.36742 -1.257529,1.60144 -1.739689,0.98833 -0.481914,-0.61311 -0.219977,-1.34303 1.105544,-3.08275 l 1.737188,-2.27945 4.877179,0.96531 c 5.530164,1.09459 6.446725,0.88589 6.446725,-1.46735 0,-3.19162 2.160264,-10.41792 3.977864,-13.307 1.48584,-2.3615 1.944298,-3.88518 2.437102,-8.0998 0.795398,-6.800595 0.769445,-7.656694 -0.246638,-8.152865 -1.822247,-0.889268 -5.497555,-0.309102 -8.598429,1.357381 -1.782613,0.957973 -3.605582,1.909265 -4.051281,2.113989 -0.445631,0.204805 0.289727,-1.002178 1.635487,-2.681999 3.605468,-4.502607 7.605149,-6.233707 13.489148,-5.838278 2.525363,0.16964 4.941541,0.431184 5.369489,0.581162 1.247281,0.436876 1.290981,-1.969995 0.07321,-3.941319 -0.616303,-0.995811 -1.119814,-2.078007 -1.119814,-2.40488 0,-1.30759 2.250855,-3.342154 3.697425,-3.342154 3.25805,0 4.44647,4.980593 1.60102,6.709453 -1.24673,0.757529 -2.53578,3.301399 -1.97169,3.891319 0.10157,0.105885 1.48772,1.319305 3.08079,2.696071 4.80222,4.150173 9.38719,3.108512 12.48346,-2.836103 1.81662,-3.488114 2.14285,-2.674175 0.62813,1.566932 -1.9171,5.366972 -6.11222,8.568534 -11.23855,8.577254 l -2.25308,0.004 -0.17868,5.053887 -0.17807,5.05387 2.45611,1.1075 c 4.18241,1.88582 9.21291,6.51725 14.49264,13.34281 l 5.06512,6.54815 1.51465,-1.13788 c 1.0332,-0.77619 1.62953,-0.90155 1.8761,-0.39428 0.19854,0.40894 0.2767,0.82309 0.17173,0.92033 -1.37452,1.28464 -3.63886,3.15874 -3.78349,3.13157 -0.10208,-0.0184 -2.68466,-2.15773 -5.73772,-4.75214 z"
       id="path40" />
  </g>
  <g
     id="layer3"
     transform="translate(-50.370969,-55.693549)">
    <text
       xml:space="preserve"
       style="font-size:9.44047px;font-family:'Franklin Gothic Medium';-inkscape-font-specification:'Franklin Gothic Medium, Normal';fill:#002c59;fill-opacity:1;stroke:#002c59;stroke-width:0.272;stroke-linejoin:round;stroke-dasharray:none;stroke-opacity:1;paint-order:normal"
       x="91.427567"
       y="138.40033"
       id="text10"
       transform="scale(0.98038292,1.0200096)"><tspan
         id="tspan10"
         style="fill:#002c59;fill-opacity:1;stroke-width:0.272;stroke-dasharray:none;paint-order:normal"
         x="91.427567"
         y="138.40033">2024</tspan></text>
    <path
       style="fill:url(#linearGradient13);fill-opacity:1;stroke:#002c59;stroke-width:0.272;stroke-linejoin:round;stroke-dasharray:none;stroke-opacity:1;paint-order:normal"
       id="path12-6"
       d="m 30.516128,105.20968 -3.00082,-0.48979 -2.104687,2.19434 -0.461487,-3.0053 -2.737321,-1.32359 2.715605,-1.36759 0.41293,-3.01236 2.139823,2.16008 2.992525,-0.538145 -1.393121,2.702595 z"
       transform="rotate(17.835142,145.68723,278.35362)" />
    <path
       style="fill:url(#linearGradient46);fill-opacity:1;stroke:#002c59;stroke-width:0.272;stroke-linejoin:round;stroke-dasharray:none;stroke-opacity:1;paint-order:normal"
       id="path12-6-4"
       d="m 30.516128,105.20968 -3.00082,-0.48979 -2.104687,2.19434 -0.461487,-3.0053 -2.737321,-1.32359 2.715605,-1.36759 0.41293,-3.01236 2.139823,2.16008 2.992525,-0.538145 -1.393121,2.702595 z"
       transform="rotate(17.835142,58.765071,226.5347)" />
    <path
       style="fill:url(#linearGradient47);fill-opacity:1;stroke:#002c59;stroke-width:0.272;stroke-linejoin:round;stroke-dasharray:none;stroke-opacity:1;paint-order:normal"
       id="path12-6-6"
       d="m 30.516128,105.20968 -3.00082,-0.48979 -2.104687,2.19434 -0.461487,-3.0053 -2.737321,-1.32359 2.715605,-1.36759 0.41293,-3.01236 2.139823,2.16008 2.992525,-0.538145 -1.393121,2.702595 z"
       transform="matrix(1.0074127,0.34459147,-0.32412657,1.0710194,80.092375,-33.783391)" />
    <path
       style="fill:#002c59;fill-opacity:1;stroke:#000a14;stroke-width:0.0305975;stroke-linejoin:round;stroke-dasharray:none;stroke-opacity:0.0393013;paint-order:normal"
       d="m 121.74013,110.52714 c -0.34837,-0.0543 -0.60968,-0.12539 -0.92397,-0.25138 -0.33817,-0.13556 -0.75408,-0.36388 -0.75449,-0.41418 -1e-4,-0.0126 -0.0131,-0.023 -0.0289,-0.023 -0.046,0 -0.39024,-0.31733 -0.57701,-0.53197 -0.10567,-0.12142 -0.32041,-0.43377 -0.32041,-0.46603 0,-0.01 -0.024,-0.0545 -0.0533,-0.0992 -0.0765,-0.11663 -0.25088,-0.59562 -0.30811,-0.84644 -0.0443,-0.19435 -0.10901,-0.8949 -0.0863,-0.93473 0.005,-0.009 0.0124,-0.12614 0.0161,-0.26016 0.008,-0.30152 0.19754,-1.06169 0.2889,-1.16038 0.0148,-0.016 0.0269,-0.0462 0.0269,-0.0671 0,-0.0317 0.19227,-0.38094 0.2672,-0.48537 0.66547,-0.92759 1.66785,-1.45242 2.91643,-1.52702 0.46716,-0.0279 1.12273,0.0466 1.50499,0.17102 0.43091,0.14028 1.13979,0.47306 1.36474,0.64068 0.0422,0.0315 0.0842,0.0573 0.0932,0.0573 0.0397,0 0.9061,0.6259 0.97323,0.70307 0.008,0.009 0.1382,0.12142 0.28942,0.24948 0.15122,0.12806 0.32053,0.27656 0.37624,0.32999 0.0557,0.0534 0.14803,0.13733 0.20515,0.18645 l 0.10386,0.0893 0.1888,-0.17464 c 0.43622,-0.4035 0.98243,-0.85409 1.37005,-1.13021 0.24562,-0.17497 0.93359,-0.59014 0.97791,-0.59014 0.0203,0 0.0492,-0.0117 0.0644,-0.026 0.0745,-0.0706 0.74778,-0.31729 1.04715,-0.38372 0.10775,-0.0239 0.27405,-0.0606 0.36956,-0.0816 0.22534,-0.0495 1.14919,-0.0506 1.43263,-0.002 0.11939,0.0206 0.30172,0.0587 0.40519,0.0847 1.22444,0.30714 2.15528,1.19787 2.52138,2.41272 0.13341,0.4427 0.17409,1.13368 0.0982,1.66865 -0.24825,1.75056 -1.71963,2.90774 -3.69724,2.90774 -1.09897,0 -2.04436,-0.38324 -3.25197,-1.31828 -0.19799,-0.1533 -0.37604,-0.29493 -0.39567,-0.31473 -0.0196,-0.0198 -0.0943,-0.0838 -0.16592,-0.14224 -0.0716,-0.0584 -0.14468,-0.12022 -0.16233,-0.1373 -0.10956,-0.10603 -0.46043,-0.43169 -0.6252,-0.58029 -0.20319,-0.18323 -0.20976,-0.18437 -0.34122,-0.0589 -0.0786,0.075 -0.72246,0.64307 -0.89747,0.79183 -0.0594,0.0505 -0.24081,0.2089 -0.4031,0.35199 -0.56498,0.49814 -0.78145,0.66008 -1.13578,0.84967 -0.55963,0.29945 -0.85108,0.40291 -1.44188,0.51186 -0.2968,0.0547 -0.98125,0.0549 -1.33134,2.6e-4 z m 1.28792,-1.45362 c 0.43041,-0.11649 0.94729,-0.38078 1.18931,-0.60811 0.0652,-0.0612 0.31831,-0.28343 0.56259,-0.49386 0.24427,-0.21043 0.50485,-0.43769 0.57907,-0.50503 0.0742,-0.0673 0.19163,-0.17064 0.26093,-0.22956 0.0693,-0.0589 0.17218,-0.15182 0.22862,-0.20646 0.0564,-0.0546 0.1124,-0.0994 0.12434,-0.0995 0.0578,-5.2e-4 0.009,-0.0896 -0.10067,-0.18486 -0.0673,-0.0583 -0.2073,-0.18246 -0.31112,-0.27583 -0.73981,-0.66538 -1.66198,-1.26525 -2.21046,-1.4379 -0.11376,-0.0358 -0.24591,-0.0787 -0.29367,-0.0953 -0.13819,-0.048 -0.78834,-0.0674 -1.02744,-0.0307 -0.37128,0.057 -0.83296,0.24292 -1.03664,0.41742 -0.0268,0.0229 -0.0922,0.0794 -0.14536,0.1254 -0.0532,0.046 -0.14524,0.15373 -0.20459,0.23934 -0.31059,0.44792 -0.42457,0.86405 -0.39896,1.45648 0.017,0.39451 0.0654,0.61696 0.19486,0.89628 0.17749,0.383 0.35715,0.58266 0.72898,0.81009 0.45191,0.27641 1.28975,0.37641 1.86021,0.22201 z m 9.47853,0.011 c 0.34573,-0.0738 0.67306,-0.20995 0.865,-0.3597 0.16905,-0.1319 0.41253,-0.44185 0.50187,-0.63889 0.16755,-0.36955 0.20931,-0.57011 0.20862,-1.00205 -9.8e-4,-0.67311 -0.17786,-1.15684 -0.57607,-1.5763 -0.41025,-0.43215 -0.91874,-0.62496 -1.65062,-0.62591 -0.7292,-0.001 -1.38847,0.24167 -2.22854,0.82012 -0.17781,0.12244 -0.43015,0.31227 -0.5638,0.42415 -0.34042,0.28495 -0.7349,0.63651 -0.81731,0.72838 -0.0541,0.0603 -0.0537,0.0623 0.0264,0.1338 0.0447,0.0399 0.13344,0.12255 0.19719,0.18364 0.0638,0.0611 0.20702,0.19153 0.31836,0.28987 0.11135,0.0983 0.22902,0.20247 0.26148,0.2314 0.0325,0.0289 0.13014,0.11133 0.21707,0.18309 0.0869,0.0718 0.20247,0.16735 0.25678,0.21241 0.55036,0.45665 1.20001,0.82762 1.71014,0.97655 0.35028,0.10226 0.8499,0.10989 1.27345,0.0194 z"
       id="path52" />
  </g>
</svg>
