<?xml version="1.0" encoding="UTF-8" standalone="no"?>
<!-- Created with Inkscape (http://www.inkscape.org/) -->

<svg
   width="110.78343mm"
   height="22.087149mm"
   viewBox="0 0 110.78343 22.087149"
   version="1.1"
   id="svg1"
   xml:space="preserve"
   xmlns:xlink="http://www.w3.org/1999/xlink"
   xmlns="http://www.w3.org/2000/svg"
   xmlns:svg="http://www.w3.org/2000/svg"><defs
     id="defs1"><linearGradient
       id="swatch15"><stop
         style="stop-color:#000044;stop-opacity:0.93333297;"
         offset="0"
         id="stop15" /></linearGradient><linearGradient
       id="swatch6"><stop
         style="stop-color:#ff6700;stop-opacity:1;"
         offset="0"
         id="stop6" /></linearGradient><linearGradient
       id="linearGradient27"><stop
         style="stop-color:#004e98;stop-opacity:0;"
         offset="0"
         id="stop27" /><stop
         style="stop-color:#004e98;stop-opacity:1;"
         offset="0.61935484"
         id="stop26" /></linearGradient><linearGradient
       id="linearGradient22"><stop
         style="stop-color:#004e98;stop-opacity:1;"
         offset="0.38064516"
         id="stop22" /><stop
         style="stop-color:#004e98;stop-opacity:0;"
         offset="1"
         id="stop23" /></linearGradient><linearGradient
       id="swatch14"><stop
         style="stop-color:#000000;stop-opacity:1;"
         offset="0"
         id="stop14" /></linearGradient><linearGradient
       id="swatch3"><stop
         style="stop-color:#002c59;stop-opacity:1;"
         offset="0"
         id="stop3" /></linearGradient><linearGradient
       xlink:href="#linearGradient22"
       id="linearGradient23"
       x1="85.392815"
       y1="43.053299"
       x2="85.392815"
       y2="45.931366"
       gradientUnits="userSpaceOnUse"
       gradientTransform="matrix(1.0543928,0,0,1,-1.8847593,2.6458334)" /><linearGradient
       xlink:href="#linearGradient27"
       id="linearGradient26"
       gradientUnits="userSpaceOnUse"
       x1="85.392815"
       y1="43.053299"
       x2="85.392815"
       y2="45.931366"
       gradientTransform="matrix(1.049448,0,0,1,-1.8158416,18.619959)" /><linearGradient
       xlink:href="#swatch3"
       id="linearGradient15"
       x1="111.57248"
       y1="31.382374"
       x2="111.57248"
       y2="38.946278"
       gradientUnits="userSpaceOnUse" /><linearGradient
       xlink:href="#swatch3"
       id="linearGradient2"
       gradientUnits="userSpaceOnUse"
       gradientTransform="matrix(0.86278917,0,0,0.86278916,-0.12107902,15.715961)"
       x1="101.86526"
       y1="40.507076"
       x2="101.86526"
       y2="53.031418" /></defs><g
     id="layer2"
     transform="translate(-42.40001,-24.432679)"><rect
       style="fill:#faf8f8;fill-opacity:1;stroke:none;stroke-width:0.139095;stroke-linejoin:round;stroke-dasharray:none;stroke-opacity:1"
       id="rect28"
       width="110.78344"
       height="22.087145"
       x="42.400013"
       y="24.43268"
       rx="4.3712287"
       ry="2.7296398" /></g><g
     id="layer1"
     transform="translate(-42.40001,-24.432679)"><g
       id="g28"
       transform="translate(9.7854452,-19.57089)"><rect
         style="fill:url(#linearGradient23);fill-opacity:1;stroke:none;stroke-width:0.151744;stroke-linejoin:round;stroke-opacity:1"
         id="rect3-2-2"
         width="107.00387"
         height="2.8780656"
         x="34.650879"
         y="45.699135"
         ry="1.4390328"
         rx="9.2594776" /><rect
         style="fill:url(#linearGradient26);fill-opacity:1;stroke:none;stroke-width:0.151388;stroke-linejoin:round;stroke-opacity:1"
         id="rect3-2-2-6"
         width="106.50205"
         height="2.8780656"
         x="34.548454"
         y="61.673271"
         ry="1.4390328"
         rx="9.216053" /><text
         xml:space="preserve"
         style="font-style:normal;font-variant:normal;font-weight:normal;font-stretch:normal;font-size:14.4754px;font-family:'Franklin Gothic Medium';-inkscape-font-specification:'Franklin Gothic Medium, Normal';font-variant-ligatures:normal;font-variant-caps:normal;font-variant-numeric:normal;font-variant-east-asian:normal;fill:#ff6700;fill-opacity:1;stroke:url(#linearGradient2);stroke-width:0.861064;stroke-linejoin:round;stroke-dasharray:none;stroke-opacity:1;paint-order:markers stroke fill"
         x="37.836082"
         y="60.891933"
         id="text3"
         transform="scale(1.0169533,0.98332935)"><tspan
           id="tspan3"
           style="font-style:normal;font-variant:normal;font-weight:normal;font-stretch:normal;font-size:14.4754px;font-family:'Franklin Gothic Medium';-inkscape-font-specification:'Franklin Gothic Medium, Normal';font-variant-ligatures:normal;font-variant-caps:normal;font-variant-numeric:normal;font-variant-east-asian:normal;fill:#ff6700;fill-opacity:1;stroke:url(#linearGradient2);stroke-width:0.861064;stroke-linejoin:round;stroke-dasharray:none;stroke-opacity:1;paint-order:markers stroke fill"
           x="37.836082"
           y="60.891933">HE<tspan
   style="font-size:1.82624px;stroke:url(#linearGradient2);stroke-width:0.861064;stroke-dasharray:none;paint-order:markers stroke fill"
   id="tspan5"> </tspan>ALTHY   TOYS</tspan></text></g><path
       style="fill:#ff6700;fill-opacity:1;stroke:url(#linearGradient15);stroke-width:0.229;stroke-linejoin:round;stroke-dasharray:none;stroke-opacity:0.933333"
       d="m 115.05707,38.230529 c -1.0751,-0.710085 -2.11602,-1.181136 -2.94468,-1.332554 -0.78115,-0.142739 -1.10069,-0.05547 -1.40947,0.38495 -0.14247,0.203219 -0.49309,0.528833 -0.77916,0.723588 -0.43908,0.298895 -0.61521,0.360084 -1.12989,0.392478 -0.52778,0.03321 -0.69321,-2.37e-4 -1.23081,-0.248909 l -0.62109,-0.287285 -0.19546,0.245613 c -0.14916,0.187457 -0.2218,0.219538 -0.30684,0.135489 -0.085,-0.08405 -0.0388,-0.184112 0.19499,-0.422608 l 0.3064,-0.312483 0.86022,0.132331 c 0.97539,0.150055 1.13705,0.121444 1.13705,-0.201155 0,-0.437531 0.38102,-1.428165 0.7016,-1.824221 0.26207,-0.323733 0.34293,-0.532611 0.42985,-1.110383 0.14029,-0.932277 0.13571,-1.049636 -0.0435,-1.117654 -0.3214,-0.121908 -0.96964,-0.04238 -1.51656,0.186079 -0.31441,0.131325 -0.63594,0.261736 -0.71455,0.289802 -0.0786,0.02807 0.0511,-0.137387 0.28846,-0.367669 0.63592,-0.617252 1.34137,-0.854563 2.37917,-0.800355 0.44541,0.02326 0.87157,0.05911 0.94705,0.07967 0.21999,0.05989 0.2277,-0.270062 0.0129,-0.540305 -0.1087,-0.136513 -0.19751,-0.284868 -0.19751,-0.329679 0,-0.179254 0.397,-0.458167 0.65214,-0.458167 0.57464,0 0.78425,0.682777 0.28238,0.919782 -0.21989,0.103847 -0.44725,0.452578 -0.34776,0.533451 0.0179,0.01452 0.2624,0.180858 0.54338,0.369596 0.847,0.568938 1.65568,0.426138 2.20179,-0.388793 0.32041,-0.478177 0.37795,-0.366596 0.11079,0.214807 -0.33813,0.735743 -1.07805,1.17464 -1.98222,1.175835 l -0.39739,5.13e-4 -0.0315,0.692824 -0.0314,0.692823 0.4332,0.151823 c 0.73768,0.258522 1.62494,0.893432 2.55616,1.82913 l 0.89337,0.897672 0.26715,-0.15599 c 0.18223,-0.106408 0.28741,-0.123591 0.3309,-0.05405 0.035,0.05606 0.0488,0.112834 0.0303,0.126165 -0.24243,0.176109 -0.64181,0.433024 -0.66732,0.429299 -0.018,-0.0026 -0.47351,-0.2958 -1.012,-0.65146 z"
       id="path40" /></g></svg>
